<?xml version="1.0" standalone="no"?>
<!DOCTYPE svg PUBLIC "-//W3C//DTD SVG 20010904//EN"
 "http://www.w3.org/TR/2001/REC-SVG-20010904/DTD/svg10.dtd">
<svg version="1.0" xmlns="http://www.w3.org/2000/svg"
 width="1595.000000pt" height="1595.000000pt" viewBox="0 0 1595.000000 1595.000000"
 preserveAspectRatio="xMidYMid meet">

<g transform="translate(0.000000,1595.000000) scale(0.100000,-0.100000)"
fill="#000000" stroke="none">
<path d="M7660 15944 c-30 -2 -132 -8 -226 -14 -1104 -68 -2261 -400 -3233
-929 -1164 -633 -2130 -1511 -2853 -2591 -441 -659 -775 -1361 -1003 -2112
-172 -563 -278 -1139 -327 -1773 -16 -207 -16 -893 0 -1100 82 -1054 330
-1992 767 -2902 784 -1630 2108 -2954 3738 -3738 910 -437 1848 -685 2902
-767 207 -16 893 -16 1100 0 504 39 943 109 1398 223 1767 443 3329 1484 4435
2954 850 1131 1388 2487 1542 3890 36 329 44 496 44 890 0 394 -8 561 -44 890
-238 2170 -1376 4161 -3135 5485 -1228 925 -2667 1463 -4225 1580 -138 11
-780 21 -880 14z m-2835 -4560 c36 -17 77 -64 89 -101 13 -40 9 -3686 -4
-3803 -22 -202 -78 -415 -153 -582 -211 -471 -649 -784 -1237 -883 -128 -22
-467 -31 -611 -16 -338 35 -656 146 -881 308 -241 173 -492 488 -473 593 19
99 39 117 364 317 228 141 262 154 339 134 53 -15 90 -46 145 -124 164 -230
420 -350 747 -349 112 0 152 4 235 26 185 47 322 133 418 262 101 135 148 266
167 463 6 65 10 773 9 1853 0 1186 4 1760 11 1787 12 46 42 87 84 112 29 18
56 19 374 19 294 0 349 -2 377 -16z m3121 -1428 c336 -72 588 -208 805 -433
l87 -90 4 171 c5 185 10 206 65 259 16 15 45 32 64 37 19 6 169 10 339 10 342
0 363 -4 411 -71 l24 -34 0 -1817 0 -1817 -21 -28 c-12 -15 -36 -37 -55 -48
-32 -19 -52 -20 -369 -20 -328 0 -336 0 -370 22 -20 12 -47 41 -60 65 -22 40
-24 56 -28 216 l-5 174 -61 -59 c-377 -366 -717 -504 -1237 -504 -169 0 -280
11 -434 43 -558 114 -1083 548 -1315 1085 -123 286 -180 560 -180 873 0 325
52 576 179 869 49 112 161 303 240 408 65 86 231 251 326 324 209 161 501 297
742 349 207 44 269 49 503 46 196 -3 240 -7 346 -30z m3156 -79 c72 -35 108
-79 152 -182 19 -44 127 -296 241 -560 354 -821 446 -1035 515 -1200 37 -88
83 -196 103 -240 41 -93 191 -451 201 -479 4 -11 10 -15 15 -10 4 5 46 101 94
214 232 556 272 651 302 720 18 41 53 125 78 185 24 61 129 310 232 555 103
245 216 515 252 600 108 258 147 334 193 370 71 57 98 60 469 60 377 0 389 -2
424 -70 26 -50 17 -98 -42 -226 -27 -60 -145 -325 -261 -589 -117 -264 -263
-592 -325 -730 -223 -497 -503 -1125 -630 -1415 -84 -193 -179 -408 -318 -720
-55 -124 -126 -285 -158 -359 -108 -246 -247 -490 -358 -625 -259 -318 -590
-524 -964 -598 -87 -17 -148 -22 -277 -22 -158 -1 -167 0 -209 24 -30 17 -52
40 -68 70 -24 44 -24 47 -21 332 l3 286 30 43 c48 68 73 78 231 89 214 14 332
55 460 158 116 94 269 335 309 487 23 88 30 194 15 241 -7 21 -63 152 -125
289 -62 138 -140 311 -173 385 -33 74 -113 252 -177 395 -209 464 -256 569
-290 645 -50 115 -304 675 -432 955 -64 137 -119 259 -123 271 -5 12 -58 134
-119 272 -116 262 -125 296 -95 353 29 57 43 59 434 56 l355 -2 57 -28z"/>
<path d="M7530 9163 c-201 -31 -350 -87 -494 -183 -112 -75 -225 -182 -292
-277 -50 -69 -130 -234 -163 -333 -73 -223 -71 -538 3 -757 63 -185 189 -390
303 -493 160 -144 362 -246 568 -286 125 -25 351 -25 465 0 369 80 639 285
802 610 159 316 155 781 -10 1111 -189 379 -595 619 -1040 614 -64 -1 -128 -4
-142 -6z"/>
</g>
</svg>
